# xmcd CD database file
#
# Track frame offsets:
#	150
#	10834
#	20146
#	29735
#	41565
#	54215
#	64424
#	75313
#	83155
#	94280
#	103788
#	115740
#	125575
#	136537
#	149004
#	159323
#	170102
#	182659
#
# Disc length: 2565 seconds
#
# Revision: 0
# Processed by: cddbd v1.5.2PL0 Copyright (c) Steve Scherf et al.
# Submitted via: CDex 1.70beta1
#
DISCID=f30a0312
DTITLE=The Doc Wiley Trio - Wild Cat Boogie Vol 4
DYEAR=1900
DGENRE=Jazz
TTITLE0=Wild Cat Boogie 
TTITLE1=How Long How Long Blues 
TTITLE2=Sugar Lips
TTITLE3=Chain Gang Blues 
TTITLE4=I Want No One But You 
TTITLE5=Vibraphone Blues 
TTITLE6=Track #19
TTITLE7=I'm In Love Again 
TTITLE8=Every Day In The Week
TTITLE9=Bewildered
TTITLE10=Big House Blues 
TTITLE11=I'm Longing For Your Love 
TTITLE12=Prison Bound Blues
TTITLE13=In My Heart You're Everything 
TTITLE14=Vibraphone Blues
TTITLE15=Wild Cat Boogie 
TTITLE16=Hard Hearted Lover Blues
TTITLE17=Big Four Boogie 
EXTD=
EXTT0=
EXTT1=
EXTT2=
EXTT3=
EXTT4=
EXTT5=
EXTT6=
EXTT7=
EXTT8=
EXTT9=
EXTT10=
EXTT11=
EXTT12=
EXTT13=
EXTT14=
EXTT15=
EXTT16=
EXTT17=
PLAYORDER=
